<svg width="30" height="30" viewBox="0 0 30 30" fill="none" xmlns="http://www.w3.org/2000/svg">
<g id="Group">
<g id="Group_2">
<path id="Vector" d="M21.8348 6.09643L23.9268 4.06907C21.3903 2.06705 18.1738 0.875977 14.6436 0.875977C11.1133 0.875977 7.8969 2.06705 5.36035 4.06907L7.45234 6.09643C9.43974 4.60125 11.924 3.71428 14.6436 3.71428C17.3632 3.71428 19.8474 4.60125 21.8348 6.09643Z" fill="white"/>
<path id="Vector_2" d="M23.9014 22.0358L25.9934 24.0631C28.0592 21.605 29.2883 18.4879 29.2883 15.0667C29.2883 11.6456 28.0592 8.52849 25.9934 6.07031L23.9014 8.09767C25.4442 10.0237 26.3595 12.4312 26.3595 15.0667C26.3856 17.7023 25.4442 20.1098 23.9014 22.0358Z" fill="white"/>
<path id="Vector_3" d="M5.38689 8.12209L3.29491 6.09473C1.22906 8.5529 0 11.67 0 15.0911C0 18.5123 1.22906 21.6294 3.29491 24.0876L5.38689 22.0602C3.84404 20.1342 2.92881 17.7267 2.92881 15.0911C2.92881 12.4556 3.84404 10.0481 5.38689 8.12209Z" fill="white"/>
<path id="Vector_4" d="M7.45234 24.0635L5.36035 26.0908C7.8969 28.0929 11.1133 29.2839 14.6436 29.2839C18.1738 29.2839 21.3903 28.0929 23.9268 26.0908L21.8348 24.0635C19.8474 25.5587 17.3632 26.4456 14.6436 26.4456C11.924 26.4456 9.43974 25.5587 7.45234 24.0635Z" fill="white"/>
</g>
<g id="Group_3">
<path id="Vector_5" d="M14.6448 23.605C19.4974 23.605 23.4312 19.7928 23.4312 15.0901C23.4312 10.3875 19.4974 6.5752 14.6448 6.5752C9.79221 6.5752 5.8584 10.3875 5.8584 15.0901C5.8584 19.7928 9.79221 23.605 14.6448 23.605Z" fill="white"/>
</g>
</g>
</svg>
