<svg width="205" height="30" viewBox="0 0 205 30" fill="none" xmlns="http://www.w3.org/2000/svg">
<g clip-path="url(#clip0_1458_512)">
<path d="M6.40865 8.54297H0.258789V30.1464H6.40865V8.54297Z" fill="#3B7DED"/>
<path d="M16.9838 21.9536C17.1119 23.0317 17.3889 23.7971 17.8177 24.2528C18.5742 25.0628 19.9709 25.4649 22.008 25.4649C23.2052 25.4649 24.1582 25.2892 24.861 24.9318C25.5668 24.5774 25.9183 24.0443 25.9183 23.3355C25.9183 22.6535 25.6353 22.1383 25.0665 21.7809C24.4977 21.4265 22.3832 20.816 18.7231 19.9523C16.0874 19.3001 14.2291 18.4841 13.154 17.5043C12.0759 16.5394 11.5368 15.1486 11.5368 13.3349C11.5368 11.1936 12.3796 9.35313 14.0623 7.81343C15.7479 6.27373 18.1185 5.50537 21.1741 5.50537C24.0748 5.50537 26.4365 6.08313 28.265 7.23865C30.0906 8.39417 31.1389 10.3925 31.41 13.2277H25.3465C25.2601 12.4474 25.0397 11.8309 24.6853 11.3753C24.0152 10.5533 22.8776 10.1423 21.2724 10.1423C19.9501 10.1423 19.006 10.3478 18.4461 10.7588C17.8832 11.1698 17.6033 11.6523 17.6033 12.2062C17.6033 12.9001 17.9011 13.4064 18.4997 13.7161C19.0983 14.0437 21.2068 14.6036 24.8312 15.3958C27.2465 15.9646 29.0572 16.8223 30.2634 17.9719C31.4546 19.1363 32.0503 20.5897 32.0503 22.3348C32.0503 24.634 31.1926 26.5102 29.4801 27.9635C27.7677 29.4169 25.1201 30.1435 21.5374 30.1435C17.8832 30.1435 15.188 29.3752 13.4458 27.8355C11.7036 26.2958 10.834 24.3362 10.834 21.9507H16.9838V21.9536Z" fill="#3B7DED"/>
<path d="M34.1353 11.1549V6.83655H37.3695V0.365051H43.3705V6.83357H47.1378V11.1519H43.3705V23.4099C43.3705 24.3599 43.4896 24.9526 43.7308 25.1879C43.9721 25.4231 44.7106 25.5393 45.9436 25.5393C46.1282 25.5393 46.3218 25.5363 46.5303 25.5274C46.7358 25.5214 46.9383 25.5095 47.1378 25.4946V30.0273L44.2639 30.1345C41.3989 30.2328 39.4393 29.7385 38.391 28.6455C37.709 27.9516 37.3695 26.8794 37.3695 25.4321V11.1549H34.1353Z" fill="#3B7DED"/>
<path d="M48.6479 11.1549V6.83655H51.8822V0.365051H57.8832V6.83357H61.6475V11.1519H57.8802V23.4099C57.8802 24.3599 57.9993 24.9526 58.2405 25.1879C58.4818 25.4231 59.2203 25.5393 60.4533 25.5393C60.6379 25.5393 60.8315 25.5363 61.04 25.5274C61.2455 25.5214 61.448 25.5095 61.6475 25.4946V30.0273L58.7736 30.1345C55.9087 30.2328 53.949 29.7385 52.9007 28.6455C52.2187 27.9516 51.8792 26.8794 51.8792 25.4321V11.1549H48.6479Z" fill="#3B7DED"/>
<path d="M4.84185 1.49674L5.27964 1.05896C4.74953 0.624149 4.07349 0.365051 3.33491 0.365051C2.59633 0.365051 1.91732 0.624149 1.38721 1.05896L1.82499 1.49674C2.24193 1.17213 2.76609 0.981526 3.33193 0.981526C3.90076 0.981526 4.42491 1.17213 4.84185 1.49674Z" fill="#3B7DED"/>
<path d="M5.27686 4.94843L5.71464 5.38622C6.14945 4.85611 6.40855 4.18007 6.40855 3.44149C6.40855 2.70291 6.14945 2.02687 5.71464 1.49677L5.27686 1.93455C5.60147 2.35149 5.79207 2.87564 5.79207 3.44149C5.79207 4.00734 5.60147 4.53149 5.27686 4.94843Z" fill="#3B7DED"/>
<path d="M1.39048 1.93156L0.952696 1.49377C0.517887 2.02388 0.258789 2.69992 0.258789 3.4385C0.258789 4.17708 0.517887 4.85312 0.952696 5.38323L1.39048 4.94544C1.06587 4.5285 0.875264 4.00435 0.875264 3.4385C0.872286 2.87265 1.06587 2.3485 1.39048 1.93156Z" fill="#3B7DED"/>
<path d="M1.82499 5.38324L1.38721 5.82103C1.91732 6.25584 2.59335 6.51493 3.33193 6.51493C4.07051 6.51493 4.74655 6.25584 5.27666 5.82103L4.83887 5.38324C4.42193 5.70786 3.89778 5.89846 3.33193 5.89846C2.76609 5.89846 2.24193 5.70786 1.82499 5.38324Z" fill="#3B7DED"/>
<path d="M3.33224 5.28197C4.35036 5.28197 5.17571 4.45662 5.17571 3.4385C5.17571 2.42038 4.35036 1.59503 3.33224 1.59503C2.31412 1.59503 1.48877 2.42038 1.48877 3.4385C1.48877 4.45662 2.31412 5.28197 3.33224 5.28197Z" fill="#3B7DED"/>
<path d="M84.8851 27.8265C84.6856 27.5435 84.5665 27.0045 84.5248 26.2093C84.495 25.161 84.4831 24.2646 84.4831 23.529V12.8881C84.4831 10.0946 83.4943 8.19158 81.5139 7.18497C79.5334 6.17835 77.267 5.67505 74.7177 5.67505C70.7985 5.67505 68.0348 6.69655 66.4266 8.73956C65.414 10.044 64.8452 11.7117 64.7171 13.7399H70.5692C70.7121 12.8464 71.001 12.1376 71.4328 11.6135C72.0374 10.9047 73.0649 10.5503 74.5182 10.5503C75.8107 10.5503 76.7935 10.7319 77.4636 11.0923C78.1337 11.4526 78.4672 12.1108 78.4672 13.0608C78.4672 13.8411 78.0324 14.4159 77.1598 14.7852C76.6744 14.9966 75.8673 15.1753 74.7386 15.3183L72.6598 15.5744C70.3012 15.8722 68.5143 16.3696 67.2992 17.0635C65.0835 18.3411 63.9756 20.4049 63.9756 23.255C63.9756 25.4529 64.6635 27.1534 66.0394 28.3506C67.4153 29.5478 69.1605 30.1494 71.272 30.1494C72.9279 30.1494 74.411 29.7742 75.7243 29.0207C76.8233 28.3834 77.7942 27.6091 78.634 26.7007C78.6757 27.2249 78.7323 27.6924 78.8037 28.1064C78.8752 28.5174 79.0033 28.9582 79.1879 29.4257H85.7845V28.5323C85.3795 28.3447 85.0817 28.1124 84.8851 27.8265ZM74.2353 18.1415C75.2449 18.1415 76.1711 18.4959 76.8948 19.0916L76.2962 19.6902C75.7273 19.2464 75.0126 18.9844 74.2353 18.9844C73.458 18.9844 72.7432 19.2494 72.1744 19.6902L71.5758 19.0916C72.2995 18.4989 73.2257 18.1415 74.2353 18.1415ZM76.7548 22.3467C76.7548 23.7404 75.6261 24.8692 74.2323 24.8692C72.8385 24.8692 71.7098 23.7404 71.7098 22.3467C71.7098 20.9529 72.8385 19.8242 74.2323 19.8242C75.6261 19.8242 76.7548 20.9529 76.7548 22.3467ZM70.9802 25.0062C70.3875 24.2825 70.0301 23.3563 70.0301 22.3467C70.0301 21.3371 70.3845 20.4109 70.9802 19.6872L71.5788 20.2858C71.135 20.8546 70.873 21.5694 70.873 22.3467C70.873 23.124 71.135 23.8387 71.5788 24.4076L70.9802 25.0062ZM74.2353 26.5488C73.2257 26.5488 72.2995 26.1944 71.5758 25.5988L72.1744 25.0002C72.7432 25.4439 73.458 25.706 74.2353 25.706C75.0126 25.706 75.7273 25.441 76.2962 25.0002L76.8948 25.5988C76.1681 26.1915 75.2419 26.5488 74.2353 26.5488ZM77.4874 25.0062L76.8888 24.4076C77.3325 23.8387 77.5946 23.124 77.5946 22.3467C77.5946 21.5694 77.3325 20.8546 76.8888 20.2858L77.4874 19.6872C78.0801 20.4109 78.4345 21.3371 78.4345 22.3467C78.4374 23.3533 78.0801 24.2795 77.4874 25.0062Z" fill="#3B7DED"/>
<path d="M109.122 27.8265C108.922 27.5435 108.803 27.0045 108.762 26.2093C108.732 25.161 108.72 24.2646 108.72 23.529V12.8881C108.72 10.0946 107.731 8.19158 105.751 7.18497C103.77 6.17835 101.504 5.67505 98.9545 5.67505C95.0353 5.67505 92.2716 6.69655 90.6634 8.73956C89.6508 10.044 89.082 11.7117 88.954 13.7399H94.806C94.949 12.8464 95.2378 12.1376 95.6697 11.6135C96.2742 10.9047 97.3017 10.5503 98.755 10.5503C100.048 10.5503 101.03 10.7319 101.7 11.0923C102.37 11.4526 102.704 12.1108 102.704 13.0608C102.704 13.8411 102.269 14.4159 101.397 14.7852C100.911 14.9966 100.104 15.1753 98.9754 15.3183L96.8967 15.5744C94.538 15.8722 92.7511 16.3696 91.536 17.0635C89.3203 18.3411 88.2124 20.4049 88.2124 23.255C88.2124 25.4529 88.9004 27.1534 90.2763 28.3506C91.6522 29.5478 93.3973 30.1494 95.5088 30.1494C97.1647 30.1494 98.6478 29.7742 99.9612 29.0207C101.06 28.3834 102.031 27.6091 102.871 26.7007C102.913 27.2249 102.969 27.6924 103.041 28.1064C103.112 28.5174 103.24 28.9582 103.425 29.4257H110.021V28.5323C109.619 28.3447 109.321 28.1124 109.122 27.8265ZM98.4721 18.1415C99.4817 18.1415 100.408 18.4959 101.132 19.0916L100.533 19.6902C99.9641 19.2464 99.2494 18.9844 98.4721 18.9844C97.6948 18.9844 96.98 19.2494 96.4112 19.6902L95.8126 19.0916C96.5363 18.4989 97.4625 18.1415 98.4721 18.1415ZM100.992 22.3467C100.992 23.7404 99.8629 24.8692 98.4691 24.8692C97.0753 24.8692 95.9466 23.7404 95.9466 22.3467C95.9466 20.9529 97.0753 19.8242 98.4691 19.8242C99.8629 19.8242 100.992 20.9529 100.992 22.3467ZM95.217 25.0062C94.6243 24.2825 94.2699 23.3563 94.2699 22.3467C94.2699 21.3371 94.6243 20.4109 95.217 19.6872L95.8156 20.2858C95.3719 20.8546 95.1098 21.5694 95.1098 22.3467C95.1098 23.124 95.3719 23.8387 95.8156 24.4076L95.217 25.0062ZM98.4721 26.5488C97.4625 26.5488 96.5363 26.1944 95.8126 25.5988L96.4112 25.0002C96.98 25.4439 97.6948 25.706 98.4721 25.706C99.2494 25.706 99.9641 25.441 100.533 25.0002L101.132 25.5988C100.408 26.1915 99.4817 26.5488 98.4721 26.5488ZM101.724 25.0062L101.126 24.4076C101.569 23.8387 101.831 23.124 101.831 22.3467C101.831 21.5694 101.569 20.8546 101.126 20.2858L101.724 19.6872C102.317 20.4109 102.671 21.3371 102.671 22.3467C102.674 23.3533 102.317 24.2795 101.724 25.0062Z" fill="#3B7DED"/>
<path d="M118.532 29.7503H115.971V10.7885H118.532V29.7503Z" fill="#414042"/>
<path d="M133.876 29.7504H131.553V21.2478C131.553 19.997 131.333 19.0827 130.892 18.502C130.451 17.9212 129.686 17.6294 128.593 17.6294C128.223 17.6294 127.83 17.7009 127.416 17.8408C127.002 17.9808 126.606 18.225 126.228 18.5675C125.85 18.91 125.54 19.3865 125.305 19.994C125.067 20.6016 124.947 21.3461 124.947 22.2246V29.7504H122.625V15.9378H124.816V17.8915H124.87C125.046 17.6443 125.245 17.4001 125.466 17.1529C125.686 16.9057 125.969 16.6615 126.311 16.4143C126.654 16.1671 127.056 15.9616 127.512 15.7948C127.97 15.6281 128.48 15.5447 129.042 15.5447C129.641 15.5447 130.219 15.6162 130.773 15.7561C131.327 15.8961 131.842 16.1492 132.318 16.5096C132.795 16.87 133.173 17.3673 133.453 18.0016C133.733 18.636 133.876 19.4192 133.876 20.3514V29.7504Z" fill="#414042"/>
<path d="M145.154 19.8718C145.137 19.5919 145.092 19.3268 145.023 19.0797C144.952 18.8325 144.806 18.5912 144.589 18.353C144.368 18.1147 144.035 17.9212 143.585 17.7723C143.135 17.6233 142.569 17.5489 141.881 17.5489C141.652 17.5489 141.387 17.5697 141.089 17.6144C140.788 17.6591 140.491 17.7514 140.19 17.8914C139.889 18.0314 139.639 18.2339 139.436 18.4989C139.234 18.764 139.133 19.0975 139.133 19.5026C139.133 20.0297 139.305 20.4109 139.648 20.6372C139.99 20.8636 140.654 21.1048 141.643 21.349L143.966 21.9297C145.393 22.2812 146.396 22.7398 146.977 23.3027C147.558 23.8655 147.85 24.622 147.85 25.575C147.85 26.9658 147.337 28.0766 146.319 28.9016C145.297 29.7295 143.987 30.1434 142.385 30.1434C141.098 30.1434 140.056 29.9856 139.255 29.6669C138.454 29.3513 137.855 28.9403 137.459 28.44C137.063 27.9396 136.798 27.4333 136.667 26.9211C136.536 26.4118 136.458 25.8728 136.443 25.3099H138.689C138.725 25.6792 138.781 26.0098 138.862 26.3016C138.942 26.5905 139.109 26.8824 139.362 27.1742C139.618 27.4631 139.99 27.6984 140.485 27.8741C140.976 28.0498 141.601 28.1392 142.361 28.1392C143.26 28.1392 144.011 27.9545 144.618 27.5852C145.226 27.2159 145.53 26.6709 145.53 25.9472C145.53 25.4201 145.33 25.024 144.934 24.759C144.538 24.4939 143.82 24.2318 142.781 23.9668L140.086 23.3056C139.064 23.0585 138.278 22.6683 137.721 22.1323C137.167 21.5962 136.89 20.8695 136.89 19.9523C136.89 19.2137 137.03 18.5644 137.313 18.0105C137.593 17.4566 137.983 16.986 138.474 16.5989C139.424 15.896 140.64 15.5416 142.12 15.5416C143.263 15.5416 144.198 15.7173 144.919 16.0688C145.64 16.4202 146.179 16.8431 146.53 17.3374C146.882 17.8318 147.117 18.3024 147.23 18.7491C147.343 19.1988 147.403 19.5711 147.403 19.8718H145.154Z" fill="#414042"/>
<path d="M153.368 17.8676V26.8467C153.368 27.3232 153.505 27.621 153.776 27.7431C154.05 27.8652 154.377 27.9278 154.767 27.9278H155.586V29.7504C155.393 29.7682 155.041 29.804 154.529 29.8576C154.16 29.9112 153.931 29.938 153.841 29.938C152.784 29.938 152.054 29.6789 151.649 29.1577C151.244 28.6395 151.042 27.9129 151.042 26.9777V17.8676H149.166V15.9407H151.042V12.084H153.365V15.9407H155.583V17.8676H153.368Z" fill="#414042"/>
<path d="M157.91 13.4301V10.7885H160.233V13.4301H157.91ZM160.233 29.7503H157.91V15.9377H160.233V29.7503Z" fill="#414042"/>
<path d="M166.573 17.8676V26.8467C166.573 27.3232 166.71 27.621 166.981 27.7431C167.255 27.8652 167.583 27.9278 167.973 27.9278H168.792V29.7504C168.598 29.7682 168.247 29.804 167.735 29.8576C167.365 29.9112 167.136 29.938 167.047 29.938C165.99 29.938 165.26 29.6789 164.855 29.1577C164.45 28.6395 164.247 27.9129 164.247 26.9777V17.8676H162.371V15.9407H164.247V12.084H166.57V15.9407H168.789V17.8676H166.573Z" fill="#414042"/>
<path d="M180.067 29.7504V27.7431L180.014 27.6895C179.504 28.5353 178.915 29.1547 178.245 29.5508C177.574 29.9469 176.705 30.1435 175.63 30.1435C175.085 30.1435 174.552 30.072 174.03 29.932C173.509 29.7921 173.03 29.5538 172.592 29.2203C172.151 28.8867 171.8 28.44 171.535 27.886C171.27 27.3321 171.139 26.6591 171.139 25.8669V15.9377H173.462V25.1015C173.462 26.1766 173.7 26.9509 174.173 27.4244C174.65 27.9009 175.299 28.1362 176.127 28.1362C176.83 28.1362 177.428 27.9992 177.923 27.7282C178.414 27.4542 178.807 27.0909 179.096 26.6322C179.388 26.1736 179.6 25.6822 179.731 25.1551C179.862 24.628 179.927 24.0889 179.927 23.5439V15.9377H182.25V29.7504H180.067Z" fill="#414042"/>
<path d="M188.596 17.8676V26.8467C188.596 27.3232 188.733 27.621 189.004 27.7431C189.278 27.8652 189.606 27.9278 189.996 27.9278H190.815V29.7504C190.621 29.7682 190.27 29.804 189.758 29.8576C189.388 29.9112 189.159 29.938 189.07 29.938C188.012 29.938 187.283 29.6789 186.878 29.1577C186.473 28.6395 186.27 27.9129 186.27 26.9777V17.8676H184.394V15.9407H186.27V12.084H188.593V15.9407H190.812V17.8676H188.596Z" fill="#414042"/>
<path d="M204.812 25.4202C204.759 25.9115 204.556 26.4774 204.205 27.1117C203.993 27.5168 203.734 27.9009 203.425 28.2613C203.115 28.6217 202.76 28.9344 202.355 29.1994C201.915 29.4823 201.426 29.7117 200.89 29.8874C200.354 30.0631 199.592 30.1524 198.606 30.1524C196.706 30.1524 195.199 29.5091 194.091 28.2256C192.983 26.942 192.426 25.2772 192.426 23.2342C192.426 22.1442 192.557 21.1346 192.822 20.2114C193.087 19.2882 193.495 18.4722 194.049 17.7693C194.603 17.0665 195.3 16.5185 196.137 16.1313C196.974 15.7442 197.945 15.5506 199.056 15.5506C201.009 15.5506 202.489 16.2624 203.493 17.6889C204.497 19.1154 205 21.087 205 23.6035H194.913C194.913 25.0658 195.253 26.1885 195.929 26.9718C196.608 27.755 197.605 28.1481 198.928 28.1481C199.455 28.1481 199.934 28.0588 200.366 27.8831C200.798 27.7074 201.179 27.4691 201.516 27.1713C202.114 26.6084 202.442 26.0277 202.492 25.4291H204.812V25.4202ZM202.594 21.7481C202.558 21.1674 202.466 20.6343 202.317 20.1488C202.168 19.6634 201.947 19.2346 201.656 18.8534C201.367 18.4751 200.977 18.1743 200.494 17.954C200.009 17.7336 199.425 17.6234 198.737 17.6234C198.225 17.6234 197.733 17.7336 197.257 17.954C196.78 18.1743 196.366 18.4781 196.015 18.8653C195.664 19.2524 195.39 19.6962 195.196 20.1995C195.002 20.6998 194.907 21.215 194.907 21.7451H202.594V21.7481Z" fill="#414042"/>
</g>
<defs>
<clipPath id="clip0_1458_512">
<rect width="204.721" height="30" fill="white"/>
</clipPath>
</defs>
</svg>
