<svg width="310" height="100" viewBox="0 0 310 100" fill="none" xmlns="http://www.w3.org/2000/svg">
<g clip-path="url(#clip0_1451_297)">
<path d="M74.5301 18.4L81.6501 11.28C73.0201 4.23 62.0101 0 50.0001 0C37.9901 0 26.9801 4.23 18.3601 11.29L25.4801 18.41C32.2501 13.14 40.7601 10 50.0001 10C59.2401 10 67.7501 13.14 74.5301 18.4Z" fill="white"/>
<path d="M81.6001 74.5299L88.7201 81.6499C95.7701 73.0199 100 62.0099 100 49.9999C100 37.9899 95.7701 26.9799 88.7101 18.3599L81.5901 25.4799C86.8601 32.2499 90.0001 40.7599 90.0001 49.9999C90.0001 59.2399 86.8601 67.7499 81.6001 74.5299Z" fill="white"/>
<path d="M18.4 25.4701L11.28 18.3501C4.23 26.9801 0 37.9901 0 50.0001C0 62.0101 4.23 73.0201 11.29 81.6401L18.41 74.5201C13.14 67.7501 10 59.2401 10 50.0001C10 40.7601 13.14 32.2501 18.4 25.4701Z" fill="white"/>
<path d="M25.4701 81.5998L18.3501 88.7198C26.9801 95.7698 37.9901 99.9998 50.0001 99.9998C62.0101 99.9998 73.0201 95.7698 81.6401 88.7098L74.5201 81.5898C67.7501 86.8598 59.2401 89.9998 50.0001 89.9998C40.7601 89.9998 32.2501 86.8598 25.4701 81.5998Z" fill="white"/>
<path d="M50 80C66.5685 80 80 66.5685 80 50C80 33.4315 66.5685 20 50 20C33.4315 20 20 33.4315 20 50C20 66.5685 33.4315 80 50 80Z" fill="white"/>
<path d="M111.61 83.5101L110.92 85.4301H110L112.48 78.8301H113.49L115.88 85.4301H114.91L114.26 83.5101H111.61ZM113.93 82.7201L112.96 79.8201H112.94L111.88 82.7201H113.93Z" fill="white"/>
<path d="M131.24 80.8199C131.18 80.5399 131.08 80.3199 130.95 80.1399C130.82 79.9599 130.66 79.8199 130.49 79.7199C130.32 79.6199 130.14 79.5499 129.95 79.5099C129.77 79.4699 129.58 79.4499 129.4 79.4499C128.78 79.4499 128.26 79.6799 127.85 80.1299C127.44 80.5899 127.24 81.2299 127.24 82.0599C127.24 82.4599 127.28 82.8299 127.35 83.1599C127.43 83.4899 127.55 83.7799 127.72 84.0199C127.89 84.2599 128.12 84.4599 128.4 84.5899C128.68 84.7299 129.02 84.7999 129.42 84.7999C129.59 84.7999 129.77 84.7799 129.95 84.7299C130.13 84.6799 130.31 84.5899 130.49 84.4599C130.67 84.3299 130.83 84.1399 130.98 83.8999C131.13 83.6599 131.23 83.3599 131.3 82.9899H132.16C132.07 83.5699 131.91 84.0299 131.66 84.3999C131.41 84.7599 131.13 85.0299 130.83 85.1899C130.52 85.3599 130.24 85.4699 129.98 85.5199C129.72 85.5699 129.49 85.5899 129.28 85.5899C128.89 85.5899 128.52 85.5199 128.16 85.3899C127.81 85.2599 127.49 85.0499 127.21 84.7699C126.93 84.4899 126.71 84.1299 126.55 83.6799C126.39 83.2299 126.31 82.6999 126.31 82.0899C126.31 81.5799 126.38 81.1199 126.52 80.6899C126.66 80.2699 126.86 79.8999 127.13 79.5999C127.4 79.2999 127.72 79.0599 128.1 78.8999C128.48 78.7399 128.91 78.6499 129.38 78.6499C129.79 78.6499 130.16 78.7099 130.48 78.8199C130.8 78.9399 131.08 79.0999 131.31 79.2999C131.54 79.4999 131.72 79.7299 131.85 79.9899C131.98 80.2499 132.06 80.5199 132.09 80.7999H131.24V80.8199Z" fill="white"/>
<path d="M142.84 83.3099C142.73 83.7099 142.55 84.0899 142.3 84.4399C142.05 84.7899 141.71 85.0699 141.29 85.2899C140.87 85.4999 140.37 85.6099 139.79 85.6099C139.21 85.6099 138.71 85.4999 138.29 85.2899C137.87 85.0799 137.54 84.7899 137.28 84.4399C137.03 84.0899 136.85 83.7199 136.74 83.3099C136.63 82.9099 136.57 82.5199 136.57 82.1299C136.57 81.7399 136.63 81.3499 136.74 80.9499C136.85 80.5499 137.03 80.1699 137.28 79.8199C137.53 79.4699 137.86 79.1899 138.28 78.9699C138.7 78.7599 139.2 78.6499 139.78 78.6499C140.36 78.6499 140.86 78.7599 141.28 78.9699C141.7 79.1799 142.03 79.4699 142.29 79.8199C142.54 80.1699 142.72 80.5399 142.83 80.9499C142.94 81.3499 143 81.7399 143 82.1299C143.01 82.5199 142.95 82.9099 142.84 83.3099ZM141.93 81.0499C141.83 80.7199 141.67 80.4399 141.48 80.1999C141.28 79.9599 141.04 79.7799 140.75 79.6399C140.47 79.5099 140.15 79.4399 139.79 79.4399C139.43 79.4399 139.11 79.5099 138.83 79.6399C138.55 79.7699 138.3 79.9599 138.1 80.1999C137.9 80.4399 137.75 80.7299 137.65 81.0499C137.55 81.3699 137.49 81.7299 137.49 82.1299C137.49 82.5199 137.54 82.8699 137.65 83.2099C137.75 83.5399 137.91 83.8299 138.1 84.0599C138.3 84.2999 138.54 84.4799 138.83 84.6199C139.11 84.7499 139.43 84.8199 139.79 84.8199C140.15 84.8199 140.47 84.7499 140.75 84.6199C141.04 84.4899 141.28 84.2999 141.48 84.0599C141.68 83.8199 141.83 83.5299 141.93 83.2099C142.03 82.8799 142.09 82.5299 142.09 82.1399C142.09 81.7399 142.04 81.3799 141.93 81.0499Z" fill="white"/>
<path d="M153.17 85.4301V81.5301C153.17 81.5101 153.17 81.3701 153.18 81.1201C153.19 80.5801 153.19 80.1601 153.19 79.8901H153.17L151.31 85.4301H150.43L148.57 79.9001H148.55C148.55 80.1701 148.55 80.5701 148.56 81.1101C148.57 81.3701 148.57 81.5101 148.57 81.5301V85.4301H147.71V78.8301H148.99L150.87 84.4101H150.89L152.76 78.8301H154.03V85.4301H153.17Z" fill="white"/>
<path d="M160.05 85.4301H159.16V78.8301H162.13C162.73 78.8301 163.21 79.0001 163.56 79.3501C163.91 79.7001 164.09 80.1401 164.09 80.6901C164.09 80.9401 164.05 81.1701 163.98 81.4001C163.91 81.6301 163.79 81.8401 163.64 82.0201C163.48 82.2101 163.28 82.3601 163.03 82.4701C162.78 82.5801 162.48 82.6401 162.14 82.6401H160.06V85.4301H160.05ZM160.05 81.8901H161.82C162.25 81.8901 162.58 81.8001 162.81 81.6101C163.04 81.4301 163.16 81.1201 163.16 80.7001C163.16 80.3101 163.04 80.0301 162.81 79.8501C162.58 79.6801 162.26 79.5901 161.85 79.5901H160.04V81.8901H160.05Z" fill="white"/>
<path d="M169.76 84.6401H173.1V85.4301H168.86V78.8301H169.75V84.6401H169.76Z" fill="white"/>
<path d="M182.62 85.4301H177.75V78.8301H182.56V79.6201H178.65V81.6401H182.26V82.4301H178.65V84.6401H182.63V85.4301H182.62Z" fill="white"/>
<path d="M186.89 78.8398H192.25V79.6298H190.02V85.4398H189.13V79.6298H186.9V78.8398H186.89Z" fill="white"/>
<path d="M201.71 85.4301H196.84V78.8301H201.65V79.6201H197.74V81.6401H201.35V82.4301H197.74V84.6401H201.72V85.4301H201.71Z" fill="white"/>
<path d="M214.52 85.4301H213.58L211.86 78.8301H212.82L214.05 84.2001H214.07L215.55 78.8301H216.52L218 84.2001H218.02L219.25 78.8301H220.23L218.49 85.4301H217.55L216.04 79.9601H216.02L214.52 85.4301Z" fill="white"/>
<path d="M230.51 83.3099C230.4 83.7099 230.22 84.0899 229.97 84.4399C229.72 84.7899 229.38 85.0699 228.96 85.2899C228.54 85.4999 228.04 85.6099 227.46 85.6099C226.88 85.6099 226.38 85.4999 225.96 85.2899C225.54 85.0799 225.21 84.7899 224.95 84.4399C224.7 84.0899 224.52 83.7199 224.41 83.3099C224.3 82.9099 224.24 82.5199 224.24 82.1299C224.24 81.7399 224.3 81.3499 224.41 80.9499C224.52 80.5499 224.7 80.1699 224.95 79.8199C225.2 79.4699 225.53 79.1899 225.95 78.9699C226.37 78.7499 226.87 78.6499 227.45 78.6499C228.03 78.6499 228.53 78.7599 228.95 78.9699C229.37 79.1799 229.7 79.4699 229.96 79.8199C230.21 80.1699 230.39 80.5399 230.5 80.9499C230.61 81.3499 230.67 81.7399 230.67 82.1299C230.68 82.5199 230.62 82.9099 230.51 83.3099ZM229.6 81.0499C229.5 80.7199 229.34 80.4399 229.15 80.1999C228.95 79.9599 228.71 79.7799 228.42 79.6399C228.14 79.5099 227.82 79.4399 227.46 79.4399C227.1 79.4399 226.78 79.5099 226.5 79.6399C226.22 79.7699 225.97 79.9599 225.77 80.1999C225.57 80.4399 225.42 80.7299 225.32 81.0499C225.22 81.3699 225.16 81.7299 225.16 82.1299C225.16 82.5199 225.21 82.8699 225.32 83.2099C225.42 83.5399 225.58 83.8299 225.77 84.0599C225.97 84.2999 226.21 84.4799 226.5 84.6199C226.78 84.7499 227.1 84.8199 227.46 84.8199C227.82 84.8199 228.14 84.7499 228.42 84.6199C228.71 84.4899 228.95 84.2999 229.15 84.0599C229.35 83.8199 229.5 83.5299 229.6 83.2099C229.7 82.8799 229.76 82.5299 229.76 82.1399C229.76 81.7399 229.71 81.3799 229.6 81.0499Z" fill="white"/>
<path d="M236.41 85.4301H235.52V78.8301H238.57C238.86 78.8301 239.13 78.8601 239.39 78.9201C239.65 78.9801 239.88 79.0701 240.08 79.2101C240.28 79.3401 240.44 79.5301 240.56 79.7601C240.68 79.9901 240.74 80.2701 240.74 80.6101C240.74 80.8401 240.71 81.0401 240.66 81.2201C240.61 81.3901 240.54 81.5401 240.45 81.6601C240.36 81.7801 240.27 81.8801 240.16 81.9601C240.06 82.0401 239.94 82.1201 239.82 82.1901C239.94 82.2401 240.04 82.2901 240.12 82.3301C240.2 82.3801 240.28 82.4401 240.35 82.5301C240.42 82.6201 240.48 82.7401 240.53 82.8801C240.58 83.0201 240.6 83.2101 240.61 83.4301L240.67 84.6201C240.68 84.8101 240.7 84.9501 240.74 85.0401C240.78 85.1301 240.87 85.2101 241 85.2801V85.4301H239.91C239.88 85.3401 239.85 85.2101 239.83 85.0601C239.81 84.9001 239.79 84.7501 239.78 84.5901C239.77 84.4301 239.76 84.2801 239.76 84.1301C239.75 83.9801 239.75 83.8601 239.75 83.7801C239.75 83.6201 239.74 83.4801 239.71 83.3401C239.69 83.2101 239.63 83.0901 239.55 82.9701C239.47 82.8601 239.35 82.7701 239.19 82.7001C239.03 82.6301 238.83 82.6001 238.57 82.6001H236.41V85.4301ZM236.41 81.8401H238.48C238.66 81.8401 238.83 81.8301 238.99 81.7901C239.14 81.7601 239.28 81.7001 239.41 81.6201C239.54 81.5401 239.64 81.4201 239.71 81.2701C239.78 81.1201 239.82 80.9201 239.82 80.6901C239.82 80.4501 239.78 80.2601 239.71 80.1101C239.63 79.9601 239.54 79.8501 239.42 79.7701C239.3 79.7001 239.18 79.6501 239.05 79.6201C238.92 79.6001 238.79 79.5801 238.65 79.5801H236.43V81.8401H236.41Z" fill="white"/>
<path d="M246.61 84.6401H249.95V85.4301H245.71V78.8301H246.6V84.6401H246.61Z" fill="white"/>
<path d="M254.55 78.8398H257.22C257.64 78.8398 258.03 78.9198 258.37 79.0698C258.71 79.2198 259.01 79.4399 259.25 79.7299C259.49 80.0099 259.67 80.3498 259.8 80.7498C259.93 81.1498 259.99 81.5799 259.99 82.0499C259.99 82.4499 259.94 82.8498 259.85 83.2398C259.75 83.6398 259.6 83.9998 259.38 84.3298C259.16 84.6598 258.87 84.9298 258.5 85.1298C258.13 85.3298 257.69 85.4298 257.18 85.4298H254.54V78.8398H254.55ZM255.44 84.6698H257.17C257.76 84.6698 258.22 84.4498 258.57 83.9898C258.91 83.5398 259.08 82.9098 259.08 82.0898C259.08 81.2698 258.91 80.6599 258.56 80.2299C258.21 79.7999 257.73 79.5898 257.11 79.5898H255.45V84.6698H255.44Z" fill="white"/>
<path d="M121.21 29.29H110V68.66H121.21V29.29Z" fill="white"/>
<path d="M140.48 53.7303C140.71 55.6903 141.22 57.0902 142 57.9202C143.38 59.3903 145.92 60.1303 149.64 60.1303C151.82 60.1303 153.56 59.8103 154.84 59.1603C156.13 58.5103 156.77 57.5403 156.77 56.2503C156.77 55.0103 156.25 54.0703 155.22 53.4203C154.18 52.7703 150.33 51.6603 143.66 50.0903C138.86 48.9003 135.47 47.4103 133.51 45.6303C131.55 43.8703 130.56 41.3403 130.56 38.0303C130.56 34.1303 132.09 30.7703 135.16 27.9703C138.23 25.1703 142.55 23.7603 148.12 23.7603C153.4 23.7603 157.71 24.8103 161.04 26.9203C164.37 29.0303 166.28 32.6703 166.77 37.8303H155.72C155.56 36.4103 155.16 35.2803 154.52 34.4603C153.3 32.9603 151.23 32.2103 148.3 32.2103C145.89 32.2103 144.17 32.5903 143.15 33.3303C142.13 34.0803 141.61 34.9603 141.61 35.9703C141.61 37.2403 142.15 38.1503 143.24 38.7203C144.33 39.3103 148.17 40.3403 154.78 41.7803C159.18 42.8103 162.48 44.3803 164.68 46.4703C166.85 48.5903 167.94 51.2403 167.94 54.4203C167.94 58.6103 166.38 62.0303 163.26 64.6803C160.14 67.3303 155.31 68.6503 148.79 68.6503C142.13 68.6503 137.22 67.2503 134.05 64.4403C130.88 61.6403 129.29 58.0603 129.29 53.7203H140.48V53.7303Z" fill="white"/>
<path d="M171.73 34.0501V26.1801H177.62V14.3901H188.55V26.1801H195.41V34.0501H188.55V56.3801C188.55 58.1101 188.77 59.1901 189.21 59.6201C189.65 60.0501 190.99 60.2601 193.24 60.2601C193.58 60.2601 193.93 60.2501 194.31 60.2401C194.68 60.2301 195.05 60.2101 195.41 60.1801V68.4401L190.18 68.6301C184.96 68.8101 181.39 67.9101 179.48 65.9201C178.24 64.6501 177.62 62.7001 177.62 60.0701V34.0501H171.73Z" fill="white"/>
<path d="M198.17 34.0501V26.1801H204.06V14.3901H215V26.1801H221.86V34.0501H215V56.3801C215 58.1101 215.22 59.1901 215.66 59.6201C216.1 60.0501 217.44 60.2601 219.69 60.2601C220.03 60.2601 220.38 60.2501 220.76 60.2401C221.13 60.2301 221.5 60.2101 221.86 60.1801V68.4401L216.63 68.6301C211.41 68.8101 207.84 67.9101 205.93 65.9201C204.69 64.6501 204.07 62.7001 204.07 60.0701V34.0501H198.17Z" fill="white"/>
<path d="M118.35 16.4501L119.15 15.6501C118.18 14.8601 116.95 14.3901 115.6 14.3901C114.25 14.3901 113.02 14.8601 112.05 15.6501L112.85 16.4501C113.61 15.8601 114.56 15.5101 115.6 15.5101C116.64 15.5101 117.59 15.8601 118.35 16.4501Z" fill="white"/>
<path d="M119.14 22.7399L119.94 23.5399C120.73 22.5699 121.2 21.3399 121.2 19.9899C121.2 18.6399 120.73 17.4099 119.94 16.4399L119.14 17.2399C119.73 17.9999 120.08 18.9499 120.08 19.9899C120.09 21.0299 119.73 21.9799 119.14 22.7399Z" fill="white"/>
<path d="M112.06 17.2502L111.26 16.4502C110.47 17.4202 110 18.6502 110 20.0002C110 21.3502 110.47 22.5802 111.26 23.5502L112.06 22.7502C111.47 21.9902 111.12 21.0402 111.12 20.0002C111.12 18.9602 111.47 18.0102 112.06 17.2502Z" fill="white"/>
<path d="M112.85 23.54L112.05 24.34C113.02 25.13 114.25 25.6 115.6 25.6C116.95 25.6 118.18 25.13 119.15 24.34L118.35 23.54C117.59 24.13 116.64 24.48 115.6 24.48C114.56 24.48 113.61 24.13 112.85 23.54Z" fill="white"/>
<path d="M115.6 23.3601C117.456 23.3601 118.96 21.8558 118.96 20.0001C118.96 18.1445 117.456 16.6401 115.6 16.6401C113.744 16.6401 112.24 18.1445 112.24 20.0001C112.24 21.8558 113.744 23.3601 115.6 23.3601Z" fill="white"/>
<path d="M264.21 64.4303C263.85 63.9103 263.63 62.9303 263.55 61.4803C263.5 59.5703 263.47 57.9403 263.47 56.5903V37.2103C263.47 32.1203 261.67 28.6503 258.06 26.8203C254.45 24.9803 250.32 24.0703 245.68 24.0703C238.54 24.0703 233.5 25.9303 230.57 29.6503C228.73 32.0303 227.69 35.0703 227.45 38.7603H238.11C238.37 37.1303 238.9 35.8403 239.68 34.8803C240.78 33.5903 242.65 32.9403 245.3 32.9403C247.66 32.9403 249.45 33.2703 250.66 33.9303C251.88 34.5903 252.49 35.7903 252.49 37.5203C252.49 38.9403 251.7 39.9903 250.11 40.6603C249.22 41.0503 247.75 41.3703 245.7 41.6303L241.91 42.1003C237.61 42.6403 234.36 43.5503 232.14 44.8103C228.1 47.1403 226.09 50.9003 226.09 56.0903C226.09 60.1003 227.34 63.1903 229.85 65.3803C232.36 67.5603 235.54 68.6603 239.39 68.6603C242.41 68.6603 245.11 67.9703 247.5 66.6103C249.5 65.4503 251.27 64.0403 252.8 62.3803C252.88 63.3403 252.98 64.1903 253.11 64.9403C253.24 65.6903 253.47 66.4903 253.81 67.3403H265.83V65.7103C265.11 65.3803 264.57 64.9503 264.21 64.4303ZM244.8 46.7903C246.64 46.7903 248.33 47.4403 249.65 48.5203L248.56 49.6103C247.52 48.8003 246.22 48.3203 244.8 48.3203C243.38 48.3203 242.08 48.8003 241.04 49.6103L239.95 48.5203C241.27 47.4403 242.96 46.7903 244.8 46.7903ZM249.39 54.4503C249.39 56.9903 247.33 59.0403 244.8 59.0403C242.26 59.0403 240.21 56.9803 240.21 54.4503C240.21 51.9103 242.27 49.8603 244.8 49.8603C247.34 49.8503 249.39 51.9103 249.39 54.4503ZM238.87 59.2903C237.79 57.9703 237.14 56.2803 237.14 54.4403C237.14 52.6003 237.79 50.9103 238.87 49.5903L239.96 50.6803C239.15 51.7203 238.67 53.0203 238.67 54.4403C238.67 55.8603 239.15 57.1603 239.96 58.2003L238.87 59.2903ZM244.8 62.1003C242.96 62.1003 241.27 61.4503 239.95 60.3703L241.04 59.2803C242.08 60.0903 243.38 60.5703 244.8 60.5703C246.22 60.5703 247.52 60.0903 248.56 59.2803L249.65 60.3703C248.33 61.4503 246.64 62.1003 244.8 62.1003ZM250.73 59.2903L249.64 58.2003C250.45 57.1603 250.93 55.8603 250.93 54.4403C250.93 53.0203 250.45 51.7203 249.64 50.6803L250.73 49.5903C251.81 50.9103 252.46 52.6003 252.46 54.4403C252.46 56.2803 251.81 57.9703 250.73 59.2903Z" fill="white"/>
<path d="M308.37 64.4303C308.01 63.9103 307.79 62.9303 307.71 61.4803C307.66 59.5703 307.63 57.9403 307.63 56.5903V37.2103C307.63 32.1203 305.83 28.6503 302.22 26.8203C298.61 24.9803 294.48 24.0703 289.84 24.0703C282.7 24.0703 277.66 25.9303 274.73 29.6503C272.89 32.0303 271.85 35.0703 271.61 38.7603H282.27C282.53 37.1303 283.06 35.8403 283.84 34.8803C284.94 33.5903 286.81 32.9403 289.46 32.9403C291.82 32.9403 293.61 33.2703 294.82 33.9303C296.04 34.5903 296.65 35.7903 296.65 37.5203C296.65 38.9403 295.86 39.9903 294.27 40.6603C293.38 41.0503 291.91 41.3703 289.86 41.6303L286.07 42.1003C281.77 42.6403 278.52 43.5503 276.3 44.8103C272.26 47.1403 270.25 50.9003 270.25 56.0903C270.25 60.1003 271.5 63.1903 274.01 65.3803C276.52 67.5603 279.7 68.6603 283.55 68.6603C286.57 68.6603 289.27 67.9703 291.66 66.6103C293.66 65.4503 295.43 64.0403 296.96 62.3803C297.04 63.3403 297.14 64.1903 297.27 64.9403C297.4 65.6903 297.63 66.4903 297.97 67.3403H310V65.7103C309.28 65.3803 308.73 64.9503 308.37 64.4303ZM288.96 46.7903C290.8 46.7903 292.49 47.4403 293.81 48.5203L292.72 49.6103C291.68 48.8003 290.38 48.3203 288.96 48.3203C287.54 48.3203 286.24 48.8003 285.2 49.6103L284.11 48.5203C285.44 47.4403 287.13 46.7903 288.96 46.7903ZM293.56 54.4503C293.56 56.9903 291.5 59.0403 288.97 59.0403C286.43 59.0403 284.38 56.9803 284.38 54.4503C284.38 51.9103 286.44 49.8603 288.97 49.8603C291.5 49.8503 293.56 51.9103 293.56 54.4503ZM283.04 59.2903C281.96 57.9703 281.31 56.2803 281.31 54.4403C281.31 52.6003 281.96 50.9103 283.04 49.5903L284.13 50.6803C283.32 51.7203 282.84 53.0203 282.84 54.4403C282.84 55.8603 283.32 57.1603 284.13 58.2003L283.04 59.2903ZM288.96 62.1003C287.12 62.1003 285.43 61.4503 284.11 60.3703L285.2 59.2803C286.24 60.0903 287.54 60.5703 288.96 60.5703C290.38 60.5703 291.68 60.0903 292.72 59.2803L293.81 60.3703C292.49 61.4503 290.8 62.1003 288.96 62.1003ZM294.89 59.2903L293.8 58.2003C294.61 57.1603 295.09 55.8603 295.09 54.4403C295.09 53.0203 294.61 51.7203 293.8 50.6803L294.89 49.5903C295.97 50.9103 296.62 52.6003 296.62 54.4403C296.62 56.2803 295.97 57.9703 294.89 59.2903Z" fill="white"/>
</g>
<defs>
<clipPath id="clip0_1451_297">
<rect width="310" height="100" fill="white"/>
</clipPath>
</defs>
</svg>
